<svg class="bi bi-cart4" width="15" height="14" fill="currentColor" version="1.1" viewBox="0 0 15 14" xmlns="http://www.w3.org/2000/svg">
 <path d="m0 0.5a0.5 0.5 0 0 1 0.5-0.5h1.5a0.5 0.5 0 0 1 0.485 0.379l0.405 1.621h11.61a0.5 0.5 0 0 1 0.485 0.621l-1.5 6a0.5 0.5 0 0 1-0.485 0.379h-9a0.5 0.5 0 0 1-0.485-0.379l-1.905-7.621h-1.11a0.5 0.5 0 0 1-0.5-0.5zm3.14 2.5 0.5 2h1.36v-2zm2.86 0v2h2v-2zm3 0v2h2v-2zm3 0v2h1.36l0.5-2zm1.11 3h-1.11v2h0.61zm-2.11 0h-2v2h2zm-3 0h-2v2h2zm-3 0h-1.11l0.5 2h0.61zm0 5a1 1 0 1 0 0 2 1 1 0 0 0 0-2zm-2 1a2 2 0 1 1 4 0 2 2 0 0 1-4 0zm9-1a1 1 0 1 0 0 2 1 1 0 0 0 0-2zm-2 1a2 2 0 1 1 4 0 2 2 0 0 1-4 0z" style="fill:#800080"/>
</svg>
